<svg height="160" viewBox="0 0 896 160" fill="none" xmlns="http://www.w3.org/2000/svg">
<g clip-path="url(#clip0_228_1096)">
<rect width="896" height="160" rx="8" fill="white"/>
<g clip-path="url(#clip1_228_1096)">
<rect width="896" height="160" fill="url(#paint0_linear_228_1096)"/>
</g>
<path d="M45.847 20H38.3633L40.6742 27.198H48.1579L42.1051 31.4847L44.4161 38.7209C48.311 35.886 49.5889 31.5917 48.1579 27.1904L45.847 20ZM28.5686 27.198H36.0524L38.3633 20H30.8795L28.5686 27.198C27.1377 31.5993 28.4156 35.8937 32.3105 38.7286L34.6214 31.4924L28.5686 27.198ZM32.3105 38.7209L38.3633 43L44.4161 38.7209L38.3633 34.3654L32.3105 38.7209ZM88.7905 27.0146C87.0228 27.0146 85.8903 27.8169 85.3623 29.1236H85.2246V23.2017H82.5693V38.6904H85.2858V31.9661C85.2858 30.3003 86.3189 29.3452 87.7804 29.3452C89.2037 29.3452 90.0454 30.2545 90.0454 31.8056V38.6904H92.7619V31.3548C92.7542 28.5658 91.1779 27.0146 88.7905 27.0146ZM100.1 23.1711C96.4272 23.1711 94.2081 26.0442 94.2005 31.0339C94.2005 36.0389 96.4043 38.9502 100.1 38.9502C103.789 38.9578 106 36.0465 106 31.0339C105.992 26.0518 103.773 23.1711 100.1 23.1711ZM97.0088 31.0339C97.0165 27.389 98.2025 25.4711 100.1 25.4711C101.401 25.4711 102.365 26.3575 102.847 28.0767L97.0547 32.2794C97.0241 31.8973 97.0088 31.4771 97.0088 31.0339ZM100.1 36.6196C98.7611 36.6196 97.774 35.6721 97.3072 33.8382L103.13 29.6126C103.176 30.0558 103.199 30.5296 103.199 31.0415C103.199 34.7093 102.013 36.6196 100.1 36.6196ZM70.3413 33.8535C70.3413 35.6033 69.0864 36.4744 67.885 36.4744C66.5765 36.4744 65.7118 35.5498 65.7118 34.0904V27.1827H62.9953V34.5106C62.9953 37.2767 64.5717 38.8432 66.8367 38.8432C68.566 38.8432 69.7751 37.9339 70.3031 36.6502H70.4255V38.698H73.0578V27.1827H70.3413V33.8535ZM56.8507 27.007C54.425 27.007 52.5655 28.0844 51.9687 30.1857L54.5015 30.5449C54.7693 29.7578 55.5345 29.0854 56.866 29.0854C58.1286 29.0854 58.8173 29.7272 58.8173 30.8581V30.904C58.8173 31.6834 57.9985 31.7216 55.9631 31.9355C53.7287 32.1724 51.5861 32.8449 51.5861 35.4352C51.5861 37.697 53.2466 38.8967 55.4427 38.8967C57.2486 38.8967 58.3276 38.0485 58.8249 37.0857H58.9168V38.6674H61.5261V30.9651C61.5338 27.9239 59.0545 27.007 56.8507 27.007ZM58.8249 34.5336C58.8249 35.8173 57.7919 36.9023 56.1544 36.9023C55.0219 36.9023 54.2107 36.3827 54.2107 35.3894C54.2107 34.3502 55.1213 33.9146 56.3304 33.7389C57.042 33.6395 58.4653 33.4638 58.8249 33.1734V34.5336ZM78.8581 24.302H76.1416V27.1827H74.4964V29.3452H76.1416V35.7179C76.1263 37.8804 77.7026 38.9502 79.7457 38.889C80.3579 38.8738 80.817 38.7744 81.1307 38.6827V36.5355C80.9241 36.5661 80.4421 36.6272 80.0977 36.6349C79.4167 36.6502 78.8657 36.398 78.8657 35.2977V29.3452H81.1307V27.1904H78.8581V24.302Z" fill="white"/>
<path d="M33.088 66.2L28.144 83H31L32.128 79.088H38.368L39.496 83H42.328L37.384 66.2H33.088ZM32.8 76.568L35.128 68.528H35.368L37.672 76.568H32.8ZM54.6318 83V71.168H52.0158V77.24C52.0158 79.664 50.7438 81.032 48.7758 81.032C47.0238 81.032 45.9918 80.096 45.9918 78.128V71.168H43.3518V78.272C43.3518 81.272 45.2718 83.192 47.9838 83.192C50.2398 83.192 51.2958 82.208 51.8238 81.152H52.0638V83H54.6318ZM55.7778 73.304H58.9698V80.552C58.9698 82.04 59.9298 83 61.3698 83H64.7058V80.84H62.2818C61.8498 80.84 61.6098 80.6 61.6098 80.12V73.304H65.0658V71.168H61.6098V67.304H58.9698V71.168H55.7778V73.304ZM66.8136 66.2V83H69.4296V76.928C69.4296 74.48 70.7016 73.112 72.6696 73.112C74.4216 73.112 75.4536 74.048 75.4536 76.04V83H78.0936V75.896C78.0936 72.872 76.1736 70.952 73.4616 70.952C71.2056 70.952 70.1736 71.96 69.6696 72.896H69.4296V66.2H66.8136ZM79.843 72.656V76.544C79.843 80.984 82.339 83.336 86.179 83.336C90.019 83.336 92.515 80.984 92.515 76.544V72.656C92.515 68.336 90.019 65.864 86.179 65.864C82.339 65.864 79.843 68.336 79.843 72.656ZM82.627 72.512C82.627 70.016 83.899 68.336 86.179 68.336C88.411 68.336 89.731 69.944 89.731 72.512V76.688C89.731 79.232 88.627 80.864 86.179 80.864C83.803 80.864 82.627 79.304 82.627 76.688V72.512ZM104.317 66.2L99.3734 83H102.229L103.357 79.088H109.597L110.725 83H113.557L108.613 66.2H104.317ZM104.029 76.568L106.357 68.528H106.597L108.901 76.568H104.029ZM114.698 71.168V83H117.314V76.928C117.314 74.48 118.586 73.112 120.554 73.112C122.306 73.112 123.338 74.048 123.338 76.04V83H125.978V75.896C125.978 72.872 124.058 70.952 121.346 70.952C119.09 70.952 118.034 71.96 117.506 72.992H117.266V71.168H114.698ZM137.352 71.168V72.896H137.112C136.392 71.816 135.192 70.832 133.008 70.832C130.104 70.832 127.584 73.208 127.584 76.904C127.584 80.6 130.104 83 133.008 83C135.192 83 136.392 81.992 137.064 80.984H137.304V82.256C137.304 84.704 135.864 85.904 133.728 85.904C131.592 85.904 130.536 84.704 130.104 83.336L127.752 84.344C128.352 86.096 130.152 88.136 133.776 88.136C137.496 88.136 139.944 86.096 139.944 82.328V71.168H137.352ZM133.776 80.72C131.712 80.72 130.224 79.256 130.224 76.904C130.224 74.552 131.712 73.088 133.776 73.088C135.84 73.088 137.352 74.576 137.352 76.904C137.352 79.256 135.84 80.72 133.776 80.72ZM153.706 83V71.168H151.09V77.24C151.09 79.664 149.818 81.032 147.85 81.032C146.098 81.032 145.066 80.096 145.066 78.128V71.168H142.426V78.272C142.426 81.272 144.346 83.192 147.058 83.192C149.314 83.192 150.37 82.208 150.898 81.152H151.138V83H153.706ZM158.812 66.2H156.196V83H158.812V66.2ZM161.101 74.24L163.549 75.056C163.789 73.832 164.629 72.944 166.285 72.944C167.941 72.944 168.733 73.88 168.733 75.152V75.872H165.229C162.589 75.872 160.693 77.12 160.693 79.568C160.693 81.968 162.589 83.336 165.037 83.336C167.293 83.336 168.133 82.16 168.469 81.512H168.781V83H171.301V75.344C171.301 72.44 169.381 70.808 166.309 70.808C163.261 70.808 161.677 72.392 161.101 74.24ZM163.333 79.496C163.333 78.512 164.125 77.912 165.397 77.912H168.733V78.128C168.733 80 167.413 81.176 165.541 81.176C164.125 81.176 163.333 80.504 163.333 79.496ZM176.202 71.168H173.634V83H176.25V75.992C176.25 74.192 177.378 73.352 178.962 73.352H180.786V71.12H179.418C177.882 71.12 176.922 71.576 176.442 72.8H176.202V71.168ZM193.921 65.864C190.393 65.864 188.089 67.664 188.089 70.664C188.089 73.64 190.057 74.816 193.393 75.56L194.185 75.728C196.369 76.232 197.617 76.784 197.617 78.32C197.617 79.832 196.393 80.888 194.089 80.888C191.761 80.888 190.297 79.784 190.297 77.48V77.264H187.561V77.48C187.561 81.248 190.273 83.336 194.089 83.336C197.905 83.336 200.353 81.272 200.353 78.248C200.353 75.224 198.097 74 194.737 73.28L193.945 73.088C191.833 72.608 190.825 72.008 190.825 70.568C190.825 69.152 191.905 68.312 193.921 68.312C195.985 68.312 197.329 69.152 197.329 71.24V71.768H200.065V71.24C200.065 67.664 197.449 65.864 193.921 65.864ZM202.125 66.2V83H207.645C212.133 83 214.557 80.72 214.557 76.16V73.04C214.557 68.48 212.133 66.2 207.645 66.2H202.125ZM204.909 68.72H207.669C210.453 68.72 211.797 70.16 211.797 72.944V76.256C211.797 79.04 210.477 80.48 207.669 80.48H204.909V68.72ZM230.736 66.2H226.824L219.528 73.376H219.288V66.2H216.504V83H219.288V77.024L221.424 75.008L226.992 83H230.424L223.368 73.184L230.736 66.2Z" fill="white"/>
<path d="M30.2614 117L31.3295 113.92H35.875L36.9375 117H38.8011L34.6136 105.364H32.5852L28.3977 117H30.2614ZM31.8409 112.443L33.5568 107.477H33.6477L35.3636 112.443H31.8409ZM46.2784 105.364H44.5795V117H46.2784V105.364ZM48.5639 117H50.2628V108.273H48.5639V117ZM49.4219 106.926C50.0071 106.926 50.4957 106.472 50.4957 105.915C50.4957 105.358 50.0071 104.898 49.4219 104.898C48.831 104.898 48.348 105.358 48.348 105.915C48.348 106.472 48.831 106.926 49.4219 106.926ZM52.6847 117H54.3438V115.642H54.4858C54.7926 116.199 55.4176 117.17 57.0085 117.17C59.1222 117.17 60.6562 115.477 60.6562 112.653C60.6562 109.824 59.0994 108.159 56.9915 108.159C55.3722 108.159 54.7869 109.148 54.4858 109.688H54.3835V105.364H52.6847V117ZM54.3494 112.636C54.3494 110.812 55.1449 109.602 56.6278 109.602C58.1676 109.602 58.9403 110.903 58.9403 112.636C58.9403 114.386 58.1449 115.722 56.6278 115.722C55.1676 115.722 54.3494 114.472 54.3494 112.636ZM62.5639 117H64.2628V111.67C64.2628 110.528 65.1435 109.705 66.348 109.705C66.7003 109.705 67.098 109.767 67.2344 109.807V108.182C67.0639 108.159 66.7287 108.142 66.5128 108.142C65.4901 108.142 64.6151 108.722 64.2969 109.659H64.206V108.273H62.5639V117ZM71.1662 117.193C72.6094 117.193 73.4219 116.46 73.7457 115.807H73.8139V117H75.473V111.205C75.473 108.665 73.473 108.159 72.0866 108.159C70.5071 108.159 69.0526 108.795 68.4844 110.386L70.081 110.75C70.331 110.131 70.9673 109.534 72.1094 109.534C73.206 109.534 73.7685 110.108 73.7685 111.097V111.136C73.7685 111.756 73.1321 111.744 71.5639 111.926C69.9105 112.119 68.2173 112.551 68.2173 114.534C68.2173 116.25 69.5071 117.193 71.1662 117.193ZM71.5355 115.83C70.5753 115.83 69.8821 115.398 69.8821 114.557C69.8821 113.648 70.6889 113.324 71.6719 113.193C72.223 113.119 73.5298 112.972 73.7741 112.727V113.852C73.7741 114.886 72.9503 115.83 71.5355 115.83ZM77.7358 117H79.4347V111.67C79.4347 110.528 80.3153 109.705 81.5199 109.705C81.8722 109.705 82.2699 109.767 82.4062 109.807V108.182C82.2358 108.159 81.9006 108.142 81.6847 108.142C80.6619 108.142 79.7869 108.722 79.4688 109.659H79.3778V108.273H77.7358V117ZM85.2159 120.25C86.6193 120.25 87.5114 119.517 88.0114 118.165L91.6193 108.29L89.7841 108.273L87.5739 115.045H87.483L85.2727 108.273H83.4545L86.6477 117.114L86.4375 117.693C86.0057 118.824 85.3977 118.926 84.4659 118.67L84.0568 120.062C84.2614 120.159 84.7045 120.25 85.2159 120.25ZM101.608 108.273H99.7273V107.489C99.7273 106.716 100.045 106.295 100.875 106.295C101.227 106.295 101.477 106.375 101.636 106.426L102.034 105.051C101.795 104.96 101.301 104.818 100.614 104.818C99.233 104.818 98.0227 105.625 98.0227 107.261V108.273H96.6761V109.636H98.0227V117H99.7273V109.636H101.608V108.273ZM106.693 117.176C109.153 117.176 110.761 115.375 110.761 112.676C110.761 109.96 109.153 108.159 106.693 108.159C104.233 108.159 102.625 109.96 102.625 112.676C102.625 115.375 104.233 117.176 106.693 117.176ZM106.699 115.75C105.091 115.75 104.341 114.347 104.341 112.67C104.341 111 105.091 109.58 106.699 109.58C108.295 109.58 109.045 111 109.045 112.67C109.045 114.347 108.295 115.75 106.699 115.75ZM112.658 117H114.357V111.67C114.357 110.528 115.237 109.705 116.442 109.705C116.794 109.705 117.192 109.767 117.328 109.807V108.182C117.158 108.159 116.822 108.142 116.607 108.142C115.584 108.142 114.709 108.722 114.391 109.659H114.3V108.273H112.658V117ZM123.033 117H124.732V108.273H123.033V117ZM123.891 106.926C124.476 106.926 124.964 106.472 124.964 105.915C124.964 105.358 124.476 104.898 123.891 104.898C123.3 104.898 122.817 105.358 122.817 105.915C122.817 106.472 123.3 106.926 123.891 106.926ZM128.716 111.818C128.716 110.426 129.568 109.631 130.75 109.631C131.903 109.631 132.602 110.386 132.602 111.653V117H134.301V111.449C134.301 109.29 133.114 108.159 131.33 108.159C130.017 108.159 129.159 108.767 128.756 109.693H128.648V108.273H127.017V117H128.716V111.818ZM140.653 108.273H138.864V106.182H137.165V108.273H135.886V109.636H137.165V114.79C137.159 116.375 138.369 117.142 139.71 117.114C140.25 117.108 140.614 117.006 140.812 116.932L140.506 115.528C140.392 115.551 140.182 115.602 139.909 115.602C139.358 115.602 138.864 115.42 138.864 114.438V109.636H140.653V108.273ZM146.2 117.176C148.104 117.176 149.45 116.239 149.837 114.818L148.229 114.528C147.922 115.352 147.183 115.773 146.217 115.773C144.763 115.773 143.786 114.83 143.74 113.148H149.945V112.545C149.945 109.392 148.058 108.159 146.081 108.159C143.649 108.159 142.047 110.011 142.047 112.693C142.047 115.403 143.626 117.176 146.2 117.176ZM143.746 111.875C143.814 110.636 144.712 109.562 146.092 109.562C147.411 109.562 148.274 110.54 148.28 111.875H143.746ZM155.489 120.438C157.71 120.438 159.426 119.42 159.426 117.193V108.273H157.761V109.688H157.636C157.335 109.148 156.733 108.159 155.108 108.159C153 108.159 151.449 109.824 151.449 112.602C151.449 115.386 153.034 116.869 155.097 116.869C156.699 116.869 157.318 115.966 157.625 115.409H157.733V117.125C157.733 118.472 156.795 119.068 155.506 119.068C154.091 119.068 153.54 118.358 153.239 117.875L151.778 118.477C152.239 119.528 153.403 120.438 155.489 120.438ZM155.472 115.46C153.955 115.46 153.165 114.295 153.165 112.58C153.165 110.903 153.938 109.602 155.472 109.602C156.955 109.602 157.75 110.812 157.75 112.58C157.75 114.381 156.938 115.46 155.472 115.46ZM161.705 117H163.403V111.67C163.403 110.528 164.284 109.705 165.489 109.705C165.841 109.705 166.239 109.767 166.375 109.807V108.182C166.205 108.159 165.869 108.142 165.653 108.142C164.631 108.142 163.756 108.722 163.438 109.659H163.347V108.273H161.705V117ZM170.307 117.193C171.75 117.193 172.562 116.46 172.886 115.807H172.955V117H174.614V111.205C174.614 108.665 172.614 108.159 171.227 108.159C169.648 108.159 168.193 108.795 167.625 110.386L169.222 110.75C169.472 110.131 170.108 109.534 171.25 109.534C172.347 109.534 172.909 110.108 172.909 111.097V111.136C172.909 111.756 172.273 111.744 170.705 111.926C169.051 112.119 167.358 112.551 167.358 114.534C167.358 116.25 168.648 117.193 170.307 117.193ZM170.676 115.83C169.716 115.83 169.023 115.398 169.023 114.557C169.023 113.648 169.83 113.324 170.812 113.193C171.364 113.119 172.67 112.972 172.915 112.727V113.852C172.915 114.886 172.091 115.83 170.676 115.83ZM180.95 108.273H179.161V106.182H177.462V108.273H176.183V109.636H177.462V114.79C177.456 116.375 178.666 117.142 180.007 117.114C180.547 117.108 180.911 117.006 181.109 116.932L180.803 115.528C180.689 115.551 180.479 115.602 180.206 115.602C179.655 115.602 179.161 115.42 179.161 114.438V109.636H180.95V108.273ZM182.83 117H184.528V108.273H182.83V117ZM183.688 106.926C184.273 106.926 184.761 106.472 184.761 105.915C184.761 105.358 184.273 104.898 183.688 104.898C183.097 104.898 182.614 105.358 182.614 105.915C182.614 106.472 183.097 106.926 183.688 106.926ZM188.513 111.818C188.513 110.426 189.365 109.631 190.547 109.631C191.7 109.631 192.399 110.386 192.399 111.653V117H194.098V111.449C194.098 109.29 192.911 108.159 191.126 108.159C189.814 108.159 188.956 108.767 188.553 109.693H188.445V108.273H186.814V117H188.513V111.818ZM200.036 120.438C202.257 120.438 203.973 119.42 203.973 117.193V108.273H202.308V109.688H202.183C201.882 109.148 201.28 108.159 199.655 108.159C197.547 108.159 195.996 109.824 195.996 112.602C195.996 115.386 197.581 116.869 199.643 116.869C201.246 116.869 201.865 115.966 202.172 115.409H202.28V117.125C202.28 118.472 201.342 119.068 200.053 119.068C198.638 119.068 198.087 118.358 197.786 117.875L196.325 118.477C196.786 119.528 197.95 120.438 200.036 120.438ZM200.018 115.46C198.501 115.46 197.712 114.295 197.712 112.58C197.712 110.903 198.484 109.602 200.018 109.602C201.501 109.602 202.297 110.812 202.297 112.58C202.297 114.381 201.484 115.46 200.018 115.46ZM211.605 117L212.673 113.92H217.219L218.281 117H220.145L215.957 105.364H213.929L209.741 117H211.605ZM213.185 112.443L214.901 107.477H214.991L216.707 112.443H213.185ZM227.217 113.381C227.223 114.864 226.121 115.568 225.166 115.568C224.115 115.568 223.388 114.807 223.388 113.619V108.273H221.689V113.824C221.689 115.989 222.876 117.114 224.553 117.114C225.865 117.114 226.757 116.42 227.161 115.489H227.251V117H228.922V108.273H227.217V113.381ZM235.278 108.273H233.489V106.182H231.79V108.273H230.511V109.636H231.79V114.79C231.784 116.375 232.994 117.142 234.335 117.114C234.875 117.108 235.239 117.006 235.438 116.932L235.131 115.528C235.017 115.551 234.807 115.602 234.534 115.602C233.983 115.602 233.489 115.42 233.489 114.438V109.636H235.278V108.273ZM239.044 111.818C239.044 110.426 239.925 109.631 241.135 109.631C242.305 109.631 243.004 110.375 243.004 111.653V117H244.703V111.449C244.703 109.273 243.51 108.159 241.714 108.159C240.357 108.159 239.538 108.75 239.129 109.693H239.021V105.364H237.345V117H239.044V111.818ZM250.999 117.193C253.686 117.193 255.26 115 255.26 111.188C255.26 107.403 253.663 105.205 250.999 105.205C248.328 105.205 246.737 107.398 246.732 111.188C246.732 114.994 248.305 117.188 250.999 117.193ZM250.999 115.676C249.425 115.676 248.476 114.097 248.476 111.188C248.482 108.29 249.43 106.693 250.999 106.693C252.561 106.693 253.516 108.29 253.516 111.188C253.516 114.097 252.567 115.676 250.999 115.676ZM261.533 117H263.232V108.273H261.533V117ZM262.391 106.926C262.976 106.926 263.464 106.472 263.464 105.915C263.464 105.358 262.976 104.898 262.391 104.898C261.8 104.898 261.317 105.358 261.317 105.915C261.317 106.472 261.8 106.926 262.391 106.926ZM267.216 111.818C267.216 110.426 268.068 109.631 269.25 109.631C270.403 109.631 271.102 110.386 271.102 111.653V117H272.801V111.449C272.801 109.29 271.614 108.159 269.83 108.159C268.517 108.159 267.659 108.767 267.256 109.693H267.148V108.273H265.517V117H267.216V111.818ZM279.153 108.273H277.364V106.182H275.665V108.273H274.386V109.636H275.665V114.79C275.659 116.375 276.869 117.142 278.21 117.114C278.75 117.108 279.114 117.006 279.312 116.932L279.006 115.528C278.892 115.551 278.682 115.602 278.409 115.602C277.858 115.602 277.364 115.42 277.364 114.438V109.636H279.153V108.273ZM284.615 117.176C287.075 117.176 288.683 115.375 288.683 112.676C288.683 109.96 287.075 108.159 284.615 108.159C282.155 108.159 280.547 109.96 280.547 112.676C280.547 115.375 282.155 117.176 284.615 117.176ZM284.621 115.75C283.013 115.75 282.263 114.347 282.263 112.67C282.263 111 283.013 109.58 284.621 109.58C286.217 109.58 286.967 111 286.967 112.67C286.967 114.347 286.217 115.75 284.621 115.75ZM297.354 117.193C298.797 117.193 299.609 116.46 299.933 115.807H300.001V117H301.661V111.205C301.661 108.665 299.661 108.159 298.274 108.159C296.695 108.159 295.24 108.795 294.672 110.386L296.268 110.75C296.518 110.131 297.155 109.534 298.297 109.534C299.393 109.534 299.956 110.108 299.956 111.097V111.136C299.956 111.756 299.32 111.744 297.751 111.926C296.098 112.119 294.405 112.551 294.405 114.534C294.405 116.25 295.695 117.193 297.354 117.193ZM297.723 115.83C296.763 115.83 296.07 115.398 296.07 114.557C296.07 113.648 296.876 113.324 297.859 113.193C298.411 113.119 299.717 112.972 299.962 112.727V113.852C299.962 114.886 299.138 115.83 297.723 115.83ZM305.622 111.818C305.622 110.426 306.474 109.631 307.656 109.631C308.81 109.631 309.509 110.386 309.509 111.653V117H311.207V111.449C311.207 109.29 310.02 108.159 308.236 108.159C306.923 108.159 306.065 108.767 305.662 109.693H305.554V108.273H303.923V117H305.622V111.818ZM318.839 117L319.908 113.92H324.453L325.516 117H327.379L323.192 105.364H321.163L316.976 117H318.839ZM320.419 112.443L322.135 107.477H322.226L323.942 112.443H320.419ZM330.622 111.818C330.622 110.426 331.474 109.631 332.656 109.631C333.81 109.631 334.509 110.386 334.509 111.653V117H336.207V111.449C336.207 109.29 335.02 108.159 333.236 108.159C331.923 108.159 331.065 108.767 330.662 109.693H330.554V108.273H328.923V117H330.622V111.818ZM342.145 120.438C344.366 120.438 346.082 119.42 346.082 117.193V108.273H344.418V109.688H344.293C343.991 109.148 343.389 108.159 341.764 108.159C339.656 108.159 338.105 109.824 338.105 112.602C338.105 115.386 339.69 116.869 341.753 116.869C343.355 116.869 343.974 115.966 344.281 115.409H344.389V117.125C344.389 118.472 343.452 119.068 342.162 119.068C340.747 119.068 340.196 118.358 339.895 117.875L338.435 118.477C338.895 119.528 340.06 120.438 342.145 120.438ZM342.128 115.46C340.611 115.46 339.821 114.295 339.821 112.58C339.821 110.903 340.594 109.602 342.128 109.602C343.611 109.602 344.406 110.812 344.406 112.58C344.406 114.381 343.594 115.46 342.128 115.46ZM353.889 113.381C353.895 114.864 352.793 115.568 351.838 115.568C350.787 115.568 350.06 114.807 350.06 113.619V108.273H348.361V113.824C348.361 115.989 349.548 117.114 351.224 117.114C352.537 117.114 353.429 116.42 353.832 115.489H353.923V117H355.594V108.273H353.889V113.381ZM359.575 105.364H357.876V117H359.575V105.364ZM364.401 117.193C365.844 117.193 366.656 116.46 366.98 115.807H367.048V117H368.707V111.205C368.707 108.665 366.707 108.159 365.321 108.159C363.741 108.159 362.287 108.795 361.719 110.386L363.315 110.75C363.565 110.131 364.202 109.534 365.344 109.534C366.44 109.534 367.003 110.108 367.003 111.097V111.136C367.003 111.756 366.366 111.744 364.798 111.926C363.145 112.119 361.452 112.551 361.452 114.534C361.452 116.25 362.741 117.193 364.401 117.193ZM364.77 115.83C363.81 115.83 363.116 115.398 363.116 114.557C363.116 113.648 363.923 113.324 364.906 113.193C365.457 113.119 366.764 112.972 367.009 112.727V113.852C367.009 114.886 366.185 115.83 364.77 115.83ZM370.97 117H372.669V111.67C372.669 110.528 373.55 109.705 374.754 109.705C375.107 109.705 375.504 109.767 375.641 109.807V108.182C375.47 108.159 375.135 108.142 374.919 108.142C373.896 108.142 373.021 108.722 372.703 109.659H372.612V108.273H370.97V117ZM383.885 117.193C385.328 117.193 386.141 116.46 386.464 115.807H386.533V117H388.192V111.205C388.192 108.665 386.192 108.159 384.805 108.159C383.226 108.159 381.771 108.795 381.203 110.386L382.8 110.75C383.05 110.131 383.686 109.534 384.828 109.534C385.925 109.534 386.487 110.108 386.487 111.097V111.136C386.487 111.756 385.851 111.744 384.283 111.926C382.629 112.119 380.936 112.551 380.936 114.534C380.936 116.25 382.226 117.193 383.885 117.193ZM384.254 115.83C383.294 115.83 382.601 115.398 382.601 114.557C382.601 113.648 383.408 113.324 384.391 113.193C384.942 113.119 386.249 112.972 386.493 112.727V113.852C386.493 114.886 385.669 115.83 384.254 115.83ZM390.455 120.273H392.153V115.642H392.256C392.562 116.199 393.188 117.17 394.778 117.17C396.892 117.17 398.426 115.477 398.426 112.653C398.426 109.824 396.869 108.159 394.761 108.159C393.142 108.159 392.557 109.148 392.256 109.688H392.114V108.273H390.455V120.273ZM392.119 112.636C392.119 110.812 392.915 109.602 394.398 109.602C395.938 109.602 396.71 110.903 396.71 112.636C396.71 114.386 395.915 115.722 394.398 115.722C392.938 115.722 392.119 114.472 392.119 112.636ZM400.33 120.273H402.028V115.642H402.131C402.438 116.199 403.062 117.17 404.653 117.17C406.767 117.17 408.301 115.477 408.301 112.653C408.301 109.824 406.744 108.159 404.636 108.159C403.017 108.159 402.432 109.148 402.131 109.688H401.989V108.273H400.33V120.273ZM401.994 112.636C401.994 110.812 402.79 109.602 404.273 109.602C405.812 109.602 406.585 110.903 406.585 112.636C406.585 114.386 405.79 115.722 404.273 115.722C402.812 115.722 401.994 114.472 401.994 112.636ZM411.903 105.364H410.205V117H411.903V105.364ZM414.189 117H415.888V108.273H414.189V117ZM415.047 106.926C415.632 106.926 416.121 106.472 416.121 105.915C416.121 105.358 415.632 104.898 415.047 104.898C414.456 104.898 413.973 105.358 413.973 105.915C413.973 106.472 414.456 106.926 415.047 106.926ZM421.849 117.176C423.912 117.176 425.247 115.938 425.435 114.239H423.781C423.565 115.182 422.832 115.739 421.861 115.739C420.423 115.739 419.497 114.54 419.497 112.636C419.497 110.767 420.44 109.591 421.861 109.591C422.94 109.591 423.599 110.273 423.781 111.091H425.435C425.253 109.33 423.815 108.159 421.832 108.159C419.372 108.159 417.781 110.011 417.781 112.676C417.781 115.307 419.315 117.176 421.849 117.176ZM429.791 117.193C431.234 117.193 432.047 116.46 432.371 115.807H432.439V117H434.098V111.205C434.098 108.665 432.098 108.159 430.712 108.159C429.132 108.159 427.678 108.795 427.109 110.386L428.706 110.75C428.956 110.131 429.592 109.534 430.734 109.534C431.831 109.534 432.393 110.108 432.393 111.097V111.136C432.393 111.756 431.757 111.744 430.189 111.926C428.536 112.119 426.842 112.551 426.842 114.534C426.842 116.25 428.132 117.193 429.791 117.193ZM430.161 115.83C429.2 115.83 428.507 115.398 428.507 114.557C428.507 113.648 429.314 113.324 430.297 113.193C430.848 113.119 432.155 112.972 432.399 112.727V113.852C432.399 114.886 431.575 115.83 430.161 115.83ZM440.435 108.273H438.645V106.182H436.946V108.273H435.668V109.636H436.946V114.79C436.94 116.375 438.151 117.142 439.491 117.114C440.031 117.108 440.395 117.006 440.594 116.932L440.287 115.528C440.173 115.551 439.963 115.602 439.69 115.602C439.139 115.602 438.645 115.42 438.645 114.438V109.636H440.435V108.273ZM442.314 117H444.013V108.273H442.314V117ZM443.172 106.926C443.757 106.926 444.246 106.472 444.246 105.915C444.246 105.358 443.757 104.898 443.172 104.898C442.581 104.898 442.098 105.358 442.098 105.915C442.098 106.472 442.581 106.926 443.172 106.926ZM449.974 117.176C452.435 117.176 454.043 115.375 454.043 112.676C454.043 109.96 452.435 108.159 449.974 108.159C447.514 108.159 445.906 109.96 445.906 112.676C445.906 115.375 447.514 117.176 449.974 117.176ZM449.98 115.75C448.372 115.75 447.622 114.347 447.622 112.67C447.622 111 448.372 109.58 449.98 109.58C451.577 109.58 452.327 111 452.327 112.67C452.327 114.347 451.577 115.75 449.98 115.75ZM457.638 111.818C457.638 110.426 458.49 109.631 459.672 109.631C460.825 109.631 461.524 110.386 461.524 111.653V117H463.223V111.449C463.223 109.29 462.036 108.159 460.251 108.159C458.939 108.159 458.081 108.767 457.678 109.693H457.57V108.273H455.939V117H457.638V111.818ZM466.621 117.108C467.24 117.108 467.757 116.602 467.757 115.972C467.757 115.352 467.24 114.841 466.621 114.841C465.996 114.841 465.484 115.352 465.484 115.972C465.484 116.602 465.996 117.108 466.621 117.108Z" fill="white"/>
<g opacity="0.4">
<g clip-path="url(#clip2_228_1096)">
<path d="M607.427 -78.283C737.5 -205.642 807.249 -43.5408 807.193 33.2636C807.138 110.068 755.363 51.06 636.647 172.363C577.8 232.361 429.713 110.271 429.768 33.3473C429.804 -15.7552 467.064 -13.2315 516.417 -26.9873C544.515 -34.695 576.256 -47.7502 607.427 -78.283Z" stroke="#E3E4E6" stroke-width="0.82154" stroke-miterlimit="10"/>
<path d="M636.786 179.616C567.757 230.095 427.089 114.193 427.147 33.3458C427.183 -16.4701 463.285 -21.913 511.622 -39.4741C541.76 -50.5093 578.012 -63.6801 612.383 -90.0494C745.931 -192.438 816.129 -47.4574 816.071 33.3894C816.035 82.7297 793.911 82.9514 748.625 107.173C737.122 113.228 724.599 120.709 710.328 129.735C688.922 143.154 664.457 159.306 636.786 179.616Z" stroke="#E3E4E6" stroke-width="0.82154" stroke-miterlimit="10"/>
<path d="M636.781 186.871C557.132 227.831 424.32 118.235 424.381 33.346C424.418 -17.3022 459.215 -30.8307 506.681 -51.9592C539.005 -66.3218 578.897 -79.49 617.34 -101.933C751.598 -180.067 825.01 -51.4912 824.949 33.398C824.914 82.1438 802.638 90.4502 759.826 116.576C747.885 123.819 734.779 132.132 719.78 141.157C695.753 155.526 667.941 170.843 636.781 186.871Z" stroke="#E3E4E6" stroke-width="0.82154" stroke-miterlimit="10"/>
<path d="M636.777 194.122C546.219 225.207 421.698 122.156 421.762 33.3432C421.799 -18.0183 455.293 -40.108 501.888 -64.4473C536.252 -82.3751 579.492 -95.6598 622.444 -113.7C754.794 -169.246 834.039 -55.4089 833.974 33.4036C833.94 81.555 811.658 98.0649 771.173 125.856C758.65 134.408 745.106 143.434 729.525 152.458C702.586 168.014 671.282 182.139 636.777 194.122Z" stroke="#E3E4E6" stroke-width="0.82154" stroke-miterlimit="10"/>
<path d="M636.772 201.256C535.159 222.226 418.93 125.958 418.997 33.1036C419.035 -19.0901 450.934 -49.7413 496.949 -77.1722C533.208 -98.7844 579.359 -112.661 627.256 -125.705C756.243 -160.685 842.775 -59.5637 842.708 33.2912C842.674 80.7292 820.677 105.8 782.229 135.138C769.267 144.997 754.996 154.736 738.978 163.76C709.419 180.383 674.622 193.436 636.772 201.256Z" stroke="#E3E4E6" stroke-width="0.82154" stroke-miterlimit="10"/>
<path d="M636.766 208.508C524.244 219.008 416.161 129.879 416.231 33.1007C416.269 -19.8064 446.427 -59.2569 492.008 -89.6604C530.017 -115.076 579.225 -130.496 632.213 -137.473C757.839 -154.027 851.656 -63.4816 851.586 33.4156C851.553 80.2592 829.986 113.89 793.429 144.657C780.176 155.823 765.176 166.275 748.43 175.417C716.25 192.752 677.961 204.614 636.766 208.508Z" stroke="#E3E4E6" stroke-width="0.82154" stroke-miterlimit="10"/>
<path d="M637.024 -149.357C760.455 -149.267 860.392 -67.5159 860.319 33.3048C860.286 79.5539 839.149 121.745 804.484 153.94C790.938 166.533 775.21 177.579 757.883 186.721C722.936 205.124 681.3 215.794 636.76 215.762C513.329 215.672 413.392 133.921 413.465 33.1005C413.537 -67.7202 513.593 -149.446 637.024 -149.357Z" stroke="#E3E4E6" stroke-width="0.82154" stroke-miterlimit="10"/>
<path d="M867.307 32.1203C867.273 79.3205 845.845 122.344 810.306 155.133C796.469 167.963 780.45 179.246 762.831 188.507C727.156 207.266 684.792 218.174 639.233 218.141C513.328 218.05 411.354 134.632 411.428 31.7905C411.503 -71.0514 513.597 -154.321 639.503 -154.23C765.408 -154.139 867.382 -70.7216 867.307 32.1203Z" stroke="#E3E4E6" stroke-width="0.82154" stroke-miterlimit="10"/>
<path d="M874.15 30.8172C874.115 78.8497 852.25 122.824 816.128 156.207C802 169.275 785.689 180.795 767.634 190.294C731.377 209.409 687.993 220.554 641.561 220.52C513.182 220.427 409.171 135.344 409.247 30.4809C409.322 -74.3821 513.456 -159.315 641.836 -159.222C770.216 -159.129 874.226 -74.0458 874.15 30.8172Z" stroke="#E3E4E6" stroke-width="0.82154" stroke-miterlimit="10"/>
<path d="M881.139 29.5137C881.103 78.4973 858.801 123.304 821.951 157.28C807.531 170.586 790.929 182.344 772.582 191.961C735.597 211.433 691.485 222.814 644.18 222.78C513.326 222.686 407.424 136.055 407.502 29.1711C407.579 -77.7131 513.606 -164.19 644.46 -164.095C775.314 -164.001 881.216 -77.3705 881.139 29.5137Z" stroke="#E3E4E6" stroke-width="0.82154" stroke-miterlimit="10"/>
<path d="M888.123 28.2113C888.087 78.1461 865.347 123.665 827.915 158.355C813.204 171.898 796.311 183.894 777.672 193.749C739.959 213.576 694.974 225.195 646.795 225.16C513.467 225.064 405.529 136.768 405.607 27.8623C405.686 -81.0431 513.752 -169.183 647.081 -169.087C780.409 -168.99 888.201 -80.5752 888.123 28.2113Z" stroke="#E3E4E6" stroke-width="0.82154" stroke-miterlimit="10"/>
<path d="M895.112 27.0277C895.075 77.9137 871.899 124.265 833.738 159.667C818.736 173.448 801.551 185.681 782.476 195.655C744.035 215.838 698.322 227.576 649.27 227.54C513.612 227.442 403.638 137.48 403.718 26.6723C403.798 -84.1354 513.903 -173.938 649.56 -173.84C785.218 -173.742 895.192 -83.8988 895.112 27.0277Z" stroke="#E3E4E6" stroke-width="0.82154" stroke-miterlimit="10"/>
<path d="M651.89 -178.833C513.703 -178.933 401.615 -87.5118 401.533 25.3619C401.452 138.236 513.408 229.819 651.595 229.919C789.781 230.019 901.87 138.598 901.952 25.7239C902.033 -87.1498 790.077 -178.733 651.89 -178.833Z" stroke="#E3E4E6" stroke-width="0.82154" stroke-miterlimit="10"/>
</g>
</g>
<rect x="697.5" y="24.5" width="109" height="109" rx="15.5" fill="white"/>
<path d="M752 44.6284L720 56.0397L724.881 98.3512L752 113.372L779.119 98.3512L784 56.0397L752 44.6284Z" fill="#DD0031"/>
<path d="M752 44.6284L752 52.2589L752 52.2245L752 87.043L752 113.372L779.119 98.3512L784 56.0397L752 44.6284Z" fill="#C3002F"/>
<path d="M752 52.2244L731.996 97.0794L739.454 97.0794L743.476 87.0429L760.455 87.0429L764.477 97.0794L771.936 97.0794L752 52.2244ZM757.843 80.856L746.157 80.856L752 66.798L757.843 80.856Z" fill="white"/>
<rect x="697.5" y="24.5" width="109" height="109" rx="15.5" stroke="#E3E4E6"/>
</g>
<defs>
<linearGradient id="paint0_linear_228_1096" x1="0" y1="160" x2="121.358" y2="-236.874" gradientUnits="userSpaceOnUse">
<stop stop-color="#6266F5"/>
<stop offset="1" stop-color="#65C2E7"/>
</linearGradient>
<clipPath id="clip0_228_1096">
<rect width="896" height="160" rx="8" fill="white"/>
</clipPath>
<clipPath id="clip1_228_1096">
<rect width="896" height="160" fill="white"/>
</clipPath>
<clipPath id="clip2_228_1096">
<rect width="465.339" height="160" fill="white" transform="translate(977.339 160.336) rotate(-179.959)"/>
</clipPath>
</defs>
</svg>
